<svg width="42" height="42" viewBox="0 0 42 42" fill="none" xmlns="http://www.w3.org/2000/svg">
<path fill-rule="evenodd" clip-rule="evenodd" d="M0.906555 1.7684H12.8192C10.5467 3.6801 7.86887 6.31049 7.86887 9.8608C7.86887 9.88955 7.86887 9.9183 7.86887 9.94704C7.88334 9.88955 7.89782 9.83205 7.89782 9.76019L7.91229 9.71706C7.94124 9.60207 7.95572 9.50146 7.98466 9.40084L7.99914 9.35772C8.04256 9.18524 8.08599 8.99838 8.14389 8.82589L8.15836 8.78277C9.82295 3.30639 16.6984 0.891602 22.4449 0.891602C27.3228 0.891602 29.9283 1.17908 33.0258 1.4953C33.0114 1.58154 32.9969 1.66778 32.9824 1.7684L32.9679 1.84027V1.86901L32.9535 1.95526V1.96963C32.5337 4.41316 32.2876 6.94294 32.0995 9.41522V9.47271V9.57333V9.65957V9.73144L32.085 9.83205V9.87517L32.0705 10.0045V10.0333L32.056 10.1914L35.1247 1.7684H41.3632V3.1914C39.6118 3.34951 38.2222 4.83 38.2222 6.61234V34.8279C38.2222 36.6103 39.6118 38.0908 41.3632 38.2489V39.6719H30.7533C32.91 37.7602 34.9799 34.7705 34.9799 31.3208C34.9799 31.292 34.9799 31.2633 34.9799 31.2345C33.9522 35.3167 30.5651 38.3351 27.0623 39.6575C24.8911 40.5774 22.2567 41.1093 19.1736 41.1093C15.9023 41.1093 12.6745 40.5918 9.77952 39.2982H9.76505H9.75057L9.69267 39.2694H9.6782H9.66373H9.64925L9.59135 39.2407H9.57688L9.51898 39.2119H9.5045H9.49003L9.41766 39.1832L9.34528 39.1401C9.33081 39.1257 9.33081 39.1113 9.31633 39.0969V39.0826C9.30186 39.0682 9.30186 39.0538 9.28738 39.0394L9.27291 39.0107L9.25844 38.9676L9.24396 38.9388L9.21501 38.8813V38.867C9.20054 38.8382 9.20054 38.8238 9.18606 38.7951L9.17159 38.7663L9.15711 38.7089L9.14264 38.6801L9.11369 38.6226L9.09921 38.5939L9.07026 38.522L9.05579 38.4932C9.04132 38.4645 9.02684 38.4214 9.02684 38.3926V38.3783L8.99789 38.2776L8.98342 38.2345L8.95447 38.1627C8.38996 36.3228 8.01361 34.2099 7.70965 32.3125V32.2982L7.6807 32.1401V32.1257L7.65175 31.982L7.63727 31.9388L7.6228 31.8382L7.60832 31.752L7.59385 31.6801L7.57937 31.5651V31.5364L7.5649 31.3926L7.55043 31.2489V31.2201L7.53595 31.1052V31.0764L7.52148 30.9902L7.507 30.9039L7.49253 30.8177L7.47805 30.6883V30.6739L7.53595 39.7294H0.935504V38.3064C2.68694 38.1483 4.07651 36.6678 4.07651 34.8854V6.66984C4.07651 4.88749 2.68694 3.407 0.935504 3.24889V1.82589L0.906555 1.7684ZM34.7483 27.2386C33.8364 23.0702 31.6797 20.8711 29.5519 19.4624C26.2806 17.292 21.9093 17.7089 18.8841 17.1483C13.4706 16.1565 11.9073 10.4932 13.8903 7.02918C13.9193 6.97168 13.239 6.23862 12.935 5.73554C12.8771 5.6493 11.777 5.90803 11.5454 5.99427C12.052 5.62055 12.8771 5.17497 12.906 5.20372L14.0785 6.12363C14.1509 6.18113 15.4246 5.49119 15.6852 5.40495L15.6997 5.1606L15.7431 3.89571C16.2786 3.72322 16.8287 3.59386 17.3787 3.4645L18.0446 4.54253L18.1748 4.75813C18.7538 4.65752 19.3473 4.57127 19.9407 4.52815L20.0131 4.2838L20.375 3.07641C20.6355 3.06203 20.8816 3.06203 21.1421 3.06203C21.4461 3.06203 21.7645 3.07641 22.0685 3.09078L22.4304 4.29817L22.5028 4.54253C23.1252 4.58565 23.7186 4.67189 24.3266 4.78688L24.4568 4.57127L25.1371 3.49324C25.6872 3.62261 26.2372 3.76635 26.7583 3.93883L26.7873 5.20372V5.44807C27.3228 5.63493 27.8873 5.9224 28.3939 6.16676L29.5809 5.26121L30.8836 6.05177C30.8257 6.13801 29.5664 5.7068 29.494 5.80741C29.2479 6.20988 28.6111 6.85669 28.64 6.91419C28.9585 7.54663 29.3782 8.25094 29.5519 9.08462C30.0151 11.1401 29.9427 13.6411 29.9427 15.2222L29.8848 17.6514C32.8087 19.3043 35.472 23.6883 34.8207 26.7355C34.7917 26.8937 34.7917 27.0661 34.7773 27.2386H34.7483ZM28.3795 35.2017L29.4216 36.1647L30.7244 36.0928L29.19 36.8259L28.4084 36.0928L28.2347 35.9203C27.6992 36.1791 27.1491 36.3947 26.5846 36.5959L26.5701 36.8403L26.5267 38.1052C25.9911 38.2776 25.4411 38.407 24.8911 38.5364L24.2252 37.4583L24.095 37.2427C23.516 37.3433 22.9225 37.4296 22.3146 37.4727L22.2422 37.7171L21.8803 38.9245C21.6198 38.9388 21.3737 38.9388 21.1132 38.9388C20.8092 38.9388 20.4908 38.9245 20.1868 38.9101L19.8249 37.7027L19.7526 37.4583C19.1302 37.4152 18.5367 37.329 17.9288 37.214L17.7985 37.4296L17.1182 38.5076C16.5681 38.3783 16.0181 38.2345 15.497 38.062L15.4681 36.7971V36.5528C14.9036 36.3516 14.3535 36.1216 13.818 35.8629L13.6298 36.0353L12.7034 36.8978C12.1968 36.639 11.7191 36.3516 11.2415 36.0497L11.5454 34.8279L11.6033 34.5836C11.4441 34.4686 11.2849 34.368 11.1401 34.253L10.1848 33.3331L8.85314 34.1236L10.3151 32.6144L12.2981 33.9799V24.9388C9.47556 23.3577 7.34778 19.2756 7.59385 16.444C7.63727 15.9409 7.6228 15.4522 7.69517 14.9922C8.23073 18.6 10.069 21.0292 12.2692 22.4809C16.8432 25.4707 24.2252 23.0128 27.9886 26.5343C29.8269 28.2448 30.8402 31.5507 28.3505 35.2448L28.3795 35.2017ZM21.1421 19.4337C22.0106 19.4337 22.7199 20.138 22.7199 21.0004C22.7199 21.8629 22.0106 22.5672 21.1421 22.5672C20.2737 22.5672 19.5644 21.8629 19.5644 21.0004C19.5644 20.138 20.2737 19.4337 21.1421 19.4337Z" fill="url(#paint0_linear_101_4926)"/>
<defs>
<linearGradient id="paint0_linear_101_4926" x1="12.7531" y1="41.854" x2="29.2928" y2="0.0627094" gradientUnits="userSpaceOnUse">
<stop stop-color="#FEFEFE"/>
<stop offset="0.270588" stop-color="#898E91"/>
<stop offset="0.458824" stop-color="#FEFEFE"/>
<stop offset="0.580392" stop-color="#65696D"/>
<stop offset="0.690196" stop-color="#FEFEFE"/>
<stop offset="0.8" stop-color="#898E91"/>
<stop offset="0.890196" stop-color="#FEFEFE"/>
<stop offset="1" stop-color="#282829"/>
</linearGradient>
</defs>
</svg>
