<svg width="177" height="42" viewBox="0 0 177 42" fill="none" xmlns="http://www.w3.org/2000/svg">
<g clip-path="url(#clip0_101_4922)">
<path fill-rule="evenodd" clip-rule="evenodd" d="M13.7311 1.81109C16.4813 0.560575 19.6657 0 22.4449 0C25.4845 0 28.4084 0.143737 31.4336 0.445585C31.9981 0.50308 32.5627 0.560575 33.1272 0.61807C33.3877 0.646817 33.6048 0.761807 33.7641 0.977413C33.9233 1.17864 33.9812 1.423 33.9233 1.68172C33.9088 1.76797 33.8943 1.85421 33.8798 1.94045L33.8509 2.14168C33.793 2.42916 33.7496 2.73101 33.7062 3.03285L34.2707 1.48049C34.4009 1.12115 34.7339 0.89117 35.1247 0.89117H41.3633C41.8554 0.89117 42.2607 1.29363 42.2607 1.78234V3.20534C42.2607 3.6653 41.9133 4.05339 41.4356 4.09651C40.1329 4.2115 39.1052 5.31828 39.1052 6.62628V34.8419C39.1052 36.1499 40.1184 37.2567 41.4356 37.3717C41.8988 37.4148 42.2607 37.8029 42.2607 38.2628V39.6858C42.2607 40.1745 41.8554 40.577 41.3633 40.577H30.7533C30.377 40.577 30.0441 40.347 29.9138 40.0021C29.8125 39.729 29.8414 39.4415 30.0006 39.1971C29.1756 39.7146 28.3071 40.1458 27.4097 40.4908C24.8332 41.5832 21.9817 42 19.1881 42C15.8589 42 12.4863 41.4682 9.41767 40.117H9.43214C9.41767 40.117 9.41767 40.1027 9.40319 40.1027L9.34529 40.0739C9.33082 40.0739 9.33082 40.0595 9.31635 40.0595L9.2295 40.0164C9.2295 40.0164 9.21502 40.0164 9.21502 40.0021L9.1137 39.9589L9.04133 39.9158L8.96895 39.8727C8.83868 39.8008 8.72288 39.7146 8.63604 39.5852C8.60709 39.5565 8.59261 39.5133 8.56366 39.4846L8.54919 39.4702C8.53471 39.4415 8.52024 39.4127 8.50576 39.384L8.46234 39.3121L8.44787 39.2834C8.44787 39.269 8.44787 39.269 8.43339 39.2546V39.6571C8.43339 39.9014 8.34654 40.117 8.17285 40.2895C7.99915 40.462 7.78203 40.5483 7.53596 40.5483H0.935515C0.443377 40.5483 0.0380859 40.1458 0.0380859 39.6571V38.2341C0.0380859 37.7741 0.385478 37.386 0.863142 37.3429C2.16586 37.2279 3.19356 36.1212 3.19356 34.8131V6.59754C3.19356 5.28953 2.18034 4.18275 0.863142 4.06776C0.399953 4.02464 0.0380859 3.63655 0.0380859 3.17659V1.75359C0.0380859 1.26489 0.443377 0.862423 0.935515 0.862423H12.8482C13.239 0.862423 13.5574 1.0924 13.6877 1.45175C13.7311 1.56674 13.7456 1.6961 13.7456 1.81109H13.7311ZM29.1322 18.1684C29.0164 18.0103 28.9585 17.8234 28.9729 17.6222L29.0308 15.2218C29.0308 13.2669 29.0887 11.1971 28.669 9.27105C28.5098 8.56674 28.1334 7.93429 27.8294 7.30185C27.7571 7.15811 27.7281 7 27.7426 6.85626C27.3228 6.65503 26.9031 6.4538 26.4688 6.31006C26.107 6.1807 25.8754 5.86448 25.8754 5.49076L25.8609 4.62834C25.7596 4.59959 25.6438 4.57084 25.5424 4.54209L25.0793 5.27515C24.8766 5.59138 24.5147 5.74949 24.1384 5.67762C23.5739 5.56263 22.9949 5.49076 22.4159 5.44764C22.0396 5.41889 21.7356 5.17454 21.6198 4.80082L21.3737 3.96715C21.2869 3.96715 21.2145 3.96715 21.1277 3.96715C21.0987 3.96715 21.0698 3.96715 21.0408 3.96715L20.7948 4.80082C20.679 5.16016 20.375 5.40452 19.9986 5.43327C19.4341 5.47639 18.8696 5.54825 18.3196 5.64887C17.9432 5.72074 17.5814 5.56263 17.3932 5.23203L16.9445 4.49897C16.8432 4.52772 16.7274 4.55647 16.6261 4.58522L16.5971 5.44764C16.5826 5.82136 16.351 6.13758 16.0036 6.26694C15.7865 6.35318 15.5405 6.49692 15.3233 6.59754C15.1641 6.68378 14.9759 6.77002 14.8022 6.85626C14.8457 7.07187 14.8312 7.28747 14.7154 7.50308C13.818 9.06982 13.8035 11.0678 14.4838 12.7064C15.3089 14.6756 16.9879 15.9117 19.0867 16.2998C20.7658 16.6016 22.5607 16.6304 24.2687 16.846C25.9767 17.0616 27.6413 17.4353 29.1611 18.2115L29.1322 18.1684ZM10.8651 22.4805C11.4586 23.1704 12.11 23.731 12.7758 24.1047C13.0653 24.2628 13.239 24.5503 13.239 24.8809V33.922C13.239 34.2669 13.0653 34.5544 12.7613 34.7125C12.6889 34.7556 12.6021 34.7844 12.5152 34.7988L12.3271 35.575C12.4284 35.6324 12.5152 35.6899 12.6166 35.7474L13.2535 35.1581C13.5285 34.8994 13.9193 34.8419 14.2667 35.0144C14.7733 35.2587 15.2944 35.4743 15.8299 35.6756C16.1918 35.8049 16.4234 36.1212 16.4234 36.4949L16.4379 37.3573C16.5392 37.386 16.655 37.4148 16.7563 37.4435L17.2195 36.7105C17.4222 36.3943 17.784 36.2361 18.1604 36.308C18.7249 36.423 19.3039 36.4949 19.8829 36.538C20.2592 36.5667 20.5632 36.8111 20.679 37.1848L20.925 38.0185C21.0119 38.0185 21.0842 38.0185 21.1711 38.0185C21.2 38.0185 21.229 38.0185 21.2579 38.0185L21.504 37.1992C21.6198 36.8398 21.9238 36.5955 22.3001 36.5667C22.8646 36.5236 23.4291 36.4517 23.9792 36.3511C24.3555 36.2793 24.7174 36.4374 24.9056 36.768L25.3543 37.501C25.4556 37.4723 25.5714 37.4435 25.6727 37.4148L25.7017 36.5524C25.7161 36.1786 25.9477 35.8624 26.3096 35.7331C26.7149 35.5893 27.1202 35.4312 27.511 35.2587C27.4965 35.0575 27.5399 34.8563 27.6557 34.6838C28.5387 33.3614 29.1322 31.7947 28.9585 30.1848C28.8282 29.0205 28.2926 27.9281 27.4386 27.1232C27.1781 26.8789 26.9031 26.6776 26.5991 26.4908C24.6016 25.2834 21.5185 25.2259 19.246 25.0678C16.7129 24.8809 14.0206 24.5934 11.8494 23.1848C11.5165 22.9692 11.1981 22.7392 10.8941 22.4949L10.8651 22.4805ZM21.1421 20.3101C20.7658 20.3101 20.4618 20.6119 20.4618 20.9856C20.4618 21.3593 20.7658 21.6612 21.1421 21.6612C21.5185 21.6612 21.8225 21.3593 21.8225 20.9856C21.8225 20.6119 21.5185 20.3101 21.1421 20.3101Z" fill="#65696D"/>
<path fill-rule="evenodd" clip-rule="evenodd" d="M0.906555 1.7684H12.8192C10.5467 3.6801 7.86887 6.31049 7.86887 9.8608C7.86887 9.88955 7.86887 9.9183 7.86887 9.94704C7.88334 9.88955 7.89782 9.83205 7.89782 9.76019L7.91229 9.71706C7.94124 9.60207 7.95572 9.50146 7.98466 9.40084L7.99914 9.35772C8.04256 9.18524 8.08599 8.99838 8.14389 8.82589L8.15836 8.78277C9.82295 3.30639 16.6984 0.891602 22.4449 0.891602C27.3228 0.891602 29.9283 1.17908 33.0258 1.4953C33.0114 1.58154 32.9969 1.66778 32.9824 1.7684L32.9679 1.84027V1.86901L32.9535 1.95526V1.96963C32.5337 4.41316 32.2876 6.94294 32.0995 9.41522V9.47271V9.57333V9.65957V9.73144L32.085 9.83205V9.87517L32.0705 10.0045V10.0333L32.056 10.1914L35.1247 1.7684H41.3632V3.1914C39.6118 3.34951 38.2222 4.83 38.2222 6.61234V34.8279C38.2222 36.6103 39.6118 38.0908 41.3632 38.2489V39.6719H30.7533C32.91 37.7602 34.9799 34.7705 34.9799 31.3208C34.9799 31.292 34.9799 31.2633 34.9799 31.2345C33.9522 35.3167 30.5651 38.3351 27.0623 39.6575C24.8911 40.5774 22.2567 41.1093 19.1736 41.1093C15.9023 41.1093 12.6745 40.5918 9.77952 39.2982H9.76505H9.75057L9.69267 39.2694H9.6782H9.66373H9.64925L9.59135 39.2407H9.57688L9.51898 39.2119H9.5045H9.49003L9.41766 39.1832L9.34528 39.1401C9.33081 39.1257 9.33081 39.1113 9.31633 39.0969V39.0826C9.30186 39.0682 9.30186 39.0538 9.28738 39.0394L9.27291 39.0107L9.25844 38.9676L9.24396 38.9388L9.21501 38.8813V38.867C9.20054 38.8382 9.20054 38.8238 9.18606 38.7951L9.17159 38.7663L9.15711 38.7089L9.14264 38.6801L9.11369 38.6226L9.09921 38.5939L9.07026 38.522L9.05579 38.4932C9.04132 38.4645 9.02684 38.4214 9.02684 38.3926V38.3783L8.99789 38.2776L8.98342 38.2345L8.95447 38.1627C8.38996 36.3228 8.01361 34.2099 7.70965 32.3125V32.2982L7.6807 32.1401V32.1257L7.65175 31.982L7.63727 31.9388L7.6228 31.8382L7.60832 31.752L7.59385 31.6801L7.57937 31.5651V31.5364L7.5649 31.3926L7.55043 31.2489V31.2201L7.53595 31.1052V31.0764L7.52148 30.9902L7.507 30.9039L7.49253 30.8177L7.47805 30.6883V30.6739L7.53595 39.7294H0.935504V38.3064C2.68694 38.1483 4.07651 36.6678 4.07651 34.8854V6.66984C4.07651 4.88749 2.68694 3.407 0.935504 3.24889V1.82589L0.906555 1.7684ZM34.7483 27.2386C33.8364 23.0702 31.6797 20.8711 29.5519 19.4624C26.2806 17.292 21.9093 17.7089 18.8841 17.1483C13.4706 16.1565 11.9073 10.4932 13.8903 7.02918C13.9193 6.97168 13.239 6.23862 12.935 5.73554C12.8771 5.6493 11.777 5.90803 11.5454 5.99427C12.052 5.62055 12.8771 5.17497 12.906 5.20372L14.0785 6.12363C14.1509 6.18113 15.4246 5.49119 15.6852 5.40495L15.6997 5.1606L15.7431 3.89571C16.2786 3.72322 16.8287 3.59386 17.3787 3.4645L18.0446 4.54253L18.1748 4.75813C18.7538 4.65752 19.3473 4.57127 19.9407 4.52815L20.0131 4.2838L20.375 3.07641C20.6355 3.06203 20.8816 3.06203 21.1421 3.06203C21.4461 3.06203 21.7645 3.07641 22.0685 3.09078L22.4304 4.29817L22.5028 4.54253C23.1252 4.58565 23.7186 4.67189 24.3266 4.78688L24.4568 4.57127L25.1371 3.49324C25.6872 3.62261 26.2372 3.76635 26.7583 3.93883L26.7873 5.20372V5.44807C27.3228 5.63493 27.8873 5.9224 28.3939 6.16676L29.5809 5.26121L30.8836 6.05177C30.8257 6.13801 29.5664 5.7068 29.494 5.80741C29.2479 6.20988 28.6111 6.85669 28.64 6.91419C28.9585 7.54663 29.3782 8.25094 29.5519 9.08462C30.0151 11.1401 29.9427 13.6411 29.9427 15.2222L29.8848 17.6514C32.8087 19.3043 35.472 23.6883 34.8207 26.7355C34.7917 26.8937 34.7917 27.0661 34.7773 27.2386H34.7483ZM28.3795 35.2017L29.4216 36.1647L30.7244 36.0928L29.19 36.8259L28.4084 36.0928L28.2347 35.9203C27.6992 36.1791 27.1491 36.3947 26.5846 36.5959L26.5701 36.8403L26.5267 38.1052C25.9911 38.2776 25.4411 38.407 24.8911 38.5364L24.2252 37.4583L24.095 37.2427C23.516 37.3433 22.9225 37.4296 22.3146 37.4727L22.2422 37.7171L21.8803 38.9245C21.6198 38.9388 21.3737 38.9388 21.1132 38.9388C20.8092 38.9388 20.4908 38.9245 20.1868 38.9101L19.8249 37.7027L19.7526 37.4583C19.1302 37.4152 18.5367 37.329 17.9288 37.214L17.7985 37.4296L17.1182 38.5076C16.5681 38.3783 16.0181 38.2345 15.497 38.062L15.4681 36.7971V36.5528C14.9036 36.3516 14.3535 36.1216 13.818 35.8629L13.6298 36.0353L12.7034 36.8978C12.1968 36.639 11.7191 36.3516 11.2415 36.0497L11.5454 34.8279L11.6033 34.5836C11.4441 34.4686 11.2849 34.368 11.1401 34.253L10.1848 33.3331L8.85314 34.1236L10.3151 32.6144L12.2981 33.9799V24.9388C9.47556 23.3577 7.34778 19.2756 7.59385 16.444C7.63727 15.9409 7.6228 15.4522 7.69517 14.9922C8.23073 18.6 10.069 21.0292 12.2692 22.4809C16.8432 25.4707 24.2252 23.0128 27.9886 26.5343C29.8269 28.2448 30.8402 31.5507 28.3505 35.2448L28.3795 35.2017ZM21.1421 19.4337C22.0106 19.4337 22.7199 20.138 22.7199 21.0004C22.7199 21.8629 22.0106 22.5672 21.1421 22.5672C20.2737 22.5672 19.5644 21.8629 19.5644 21.0004C19.5644 20.138 20.2737 19.4337 21.1421 19.4337Z" fill="url(#paint0_linear_101_4922)"/>
<path fill-rule="evenodd" clip-rule="evenodd" d="M0.906574 1.7684H12.8192C12.6455 1.91214 12.4863 2.05587 12.3126 2.21398H1.35529V3.26326C1.21054 3.23452 1.0658 3.20577 0.906574 3.1914V1.7684ZM10.0401 5.50556C12.9061 2.32897 18.0156 0.891602 22.4304 0.891602C27.3084 0.891602 29.9138 1.17908 33.0114 1.4953C32.9969 1.58154 32.9824 1.66778 32.968 1.7684L32.9535 1.84027V1.86901V1.88339C30.073 1.59591 27.4965 1.33719 22.8791 1.33719C17.1471 1.33719 9.93876 3.75197 8.27418 9.22836L8.2597 9.27148C8.2018 9.44396 8.15838 9.61645 8.11496 9.80331L8.10048 9.84643C8.07153 9.94704 8.05706 10.062 8.02811 10.1626L8.01363 10.2058C7.99916 10.2633 7.98468 10.3208 7.98468 10.3926C7.98468 10.3639 7.98468 10.3351 7.98468 10.3064C7.98468 8.48092 9.02686 6.88544 10.0256 5.51994L10.0401 5.50556ZM35.0813 1.7684H41.3198V2.21398H35.5155L31.9837 10.4501L31.9982 10.292V10.2633L32.0126 10.1339V10.0908L32.0271 9.99016V9.91829L32.0416 9.74581V9.68832L35.0668 1.78277L35.0813 1.7684ZM39.4237 37.4583C39.9447 37.8895 40.6106 38.177 41.3198 38.2489V38.6226C40.5672 38.4501 39.9013 38.0333 39.4237 37.4727V37.4583ZM31.6218 39.6719H30.7099C33.0259 37.6308 34.6181 35.331 34.951 31.5364C35.1102 34.6123 33.793 37.5733 31.6218 39.6719ZM1.32634 39.6719H0.877625V38.2489C2.62906 38.0908 4.01863 36.6103 4.01863 34.8279V6.61234C4.01863 5.77867 3.71466 5.01686 3.20805 4.41316C3.9752 5.04561 4.45287 5.99427 4.45287 7.04355V35.2592C4.45287 37.0415 3.0633 38.522 1.31186 38.6801V39.6719H1.32634ZM31.6942 21.2592C30.9994 20.5405 30.2612 19.9511 29.523 19.4624C26.2517 17.292 21.8804 17.7088 18.8552 17.1483C17.3932 16.8752 16.2063 16.2715 15.2944 15.4378C16.2497 16.4727 17.5814 17.2633 19.3039 17.5795C22.3146 18.1401 26.6859 17.7232 29.9717 19.8937C30.5507 20.2817 31.1297 20.7273 31.6942 21.2448V21.2592ZM30.4783 6.02302C30.2757 5.9799 30.0151 5.90803 29.798 5.85053L28.8571 6.56922C28.6979 6.75608 28.5821 6.89981 28.5966 6.91419C28.915 7.54663 29.3348 8.25094 29.5085 9.08462C29.9717 11.1401 29.8993 13.6411 29.8993 15.2222L29.8414 17.6514C29.9862 17.7376 30.1454 17.8238 30.2901 17.9245L30.348 15.6534C30.348 14.0723 30.4204 11.5713 29.9572 9.51583C29.7691 8.68216 29.3493 7.97784 29.0453 7.3454C29.0164 7.28791 29.6533 6.64109 29.8993 6.23862C29.9572 6.13801 31.231 6.56922 31.2889 6.48298L30.4928 5.99427L30.4783 6.02302ZM31.9113 19.3043C33.793 21.2735 35.2839 24.0045 34.7483 26.9799C35.53 24.9963 35.501 22.3228 31.9113 19.3043ZM28.365 35.1873L28.8282 35.6041C31.3034 31.9245 30.2901 28.6329 28.4519 26.908C28.4229 26.8793 28.3795 26.8505 28.3505 26.8218C29.9572 28.6185 30.6954 31.7232 28.365 35.1873ZM29.7835 36.524L29.1756 36.8115L28.394 36.0785L28.2058 35.906C27.6702 36.1647 27.1202 36.3803 26.5557 36.5815L26.5412 36.8259L26.4978 38.0908C26.0201 38.2345 25.5135 38.3783 25.0214 38.4789L25.3109 38.9532C25.8609 38.8382 26.4109 38.6945 26.9465 38.522L26.9899 37.2571L27.0044 37.0127C27.5689 36.8115 28.1189 36.5959 28.6545 36.3372L28.8282 36.5097L29.6098 37.2427L31.1441 36.5097L29.8414 36.5815L29.7691 36.524H29.7835ZM24.37 37.6883L24.2108 37.4296L24.0805 37.214C23.5015 37.3146 22.9081 37.4008 22.3146 37.444L22.2422 37.6883L21.8804 38.8957C21.6198 38.9101 21.3737 38.9101 21.1132 38.9101C20.9106 38.9101 20.7079 38.9101 20.5053 38.8957L20.6355 39.3269C20.9395 39.3413 21.2435 39.3557 21.5619 39.3557C21.8225 39.3557 22.0685 39.3557 22.3291 39.3413L22.6909 38.1339L22.7633 37.8895C23.3134 37.8464 23.8489 37.7889 24.3845 37.6883H24.37ZM19.8829 37.8464L19.8394 37.6739L19.7671 37.4296C19.1446 37.3865 18.5512 37.3002 17.9433 37.1852L17.813 37.4008L17.1327 38.4789C16.7274 38.3926 16.3366 38.292 15.9457 38.1626V38.4645C16.4813 38.637 17.0169 38.7807 17.5669 38.9101L18.2472 37.8321L18.3775 37.6164C18.8696 37.7171 19.3618 37.7889 19.8684 37.8321L19.8829 37.8464ZM15.4826 36.7971V36.7684V36.524C14.918 36.3228 14.368 36.0928 13.8324 35.8341L13.6443 36.0066L12.7179 36.869C12.385 36.6965 12.0521 36.5097 11.7336 36.3228L11.7047 36.4665C12.1823 36.7684 12.66 37.0559 13.1666 37.3146L14.093 36.4522L14.2812 36.2797C14.672 36.4665 15.0773 36.6534 15.497 36.8115L15.4826 36.7971ZM22.4304 20.1236C22.5896 20.368 22.6909 20.6698 22.6909 20.9861C22.6909 21.8485 21.9817 22.5528 21.1132 22.5528C20.7948 22.5528 20.4908 22.4522 20.2447 22.2941C20.5342 22.7109 21.0119 22.9984 21.5619 22.9984C22.4304 22.9984 23.1397 22.2941 23.1397 21.4316C23.1397 20.8854 22.8646 20.4111 22.4304 20.1236Z" fill="#FEFEFE"/>
<path d="M176.036 7.56062C175.833 5.89327 175.674 4.78649 175.558 3.79471C174.849 3.56473 173.488 3.14789 171.954 3.14789C168.321 3.14789 166.091 5.36144 166.091 8.13557C166.091 10.8378 168.321 12.2177 170.651 13.4107C172.692 14.4456 173.98 15.4087 173.98 17.1335C173.98 18.9302 172.88 20.0945 171.071 20.0945C168.407 20.0945 166.96 17.2054 166.497 15.5524L165.628 15.8111C165.787 17.2629 166.149 19.5483 166.381 20.1807C166.67 20.3101 167.134 20.5113 167.872 20.7269C168.581 20.9569 169.522 21.115 170.535 21.115C174.328 21.115 176.846 18.8296 176.846 15.8974C176.846 13.1376 174.675 11.7721 172.142 10.5504C169.869 9.4292 168.74 8.55241 168.74 6.9138C168.74 5.43331 169.782 4.1828 171.534 4.1828C173.763 4.1828 174.675 6.10887 175.167 7.76185L176.036 7.57499V7.56062ZM69.9797 3.53598H62.3371V4.41278C64.407 4.57089 64.6096 4.729 64.6096 6.95692V10.9528H56.4169V6.95692C56.4169 4.729 56.6196 4.57089 58.6171 4.41278V3.53598H51.0034V4.41278C53.1167 4.57089 53.3628 4.729 53.3628 6.95692V17.306C53.3628 19.5196 53.1312 19.6777 51.0903 19.8789V20.7126H58.7039V19.8789C56.6341 19.6777 56.4314 19.5196 56.4314 17.306V12.2321H64.6241V17.306C64.6241 19.5196 64.4214 19.6777 62.1923 19.8789V20.7126H69.9942V19.8789C67.8953 19.6777 67.6638 19.5196 67.6638 17.306V6.95692C67.6638 4.729 67.8519 4.57089 69.9942 4.41278V3.53598H69.9797ZM84.5557 16.2136C84.107 17.3635 83.5859 18.2403 83.1227 18.7865C82.5003 19.4621 81.6029 19.6489 79.9527 19.6489C78.8237 19.6489 77.8539 19.6202 77.3907 19.3614C76.8696 19.074 76.7394 18.4559 76.7394 17.2054V12.4764H78.8527C81.1541 12.4764 81.4436 12.6058 81.7766 14.5031H82.6595V9.28547H81.7766C81.4292 11.1109 81.1686 11.2834 78.8527 11.2834H76.7394V5.4908C76.7394 4.68588 76.8117 4.59963 77.7381 4.59963H79.3882C81.0673 4.59963 81.7766 4.78649 82.2108 5.30395C82.6306 5.85015 82.949 6.58321 83.2095 7.60374L84.0925 7.47438C83.9912 5.93639 83.8899 4.11093 83.8609 3.53598H71.4561V4.3984C73.4391 4.58526 73.6852 4.68588 73.6852 7.04317V17.2916C73.6852 19.5052 73.4536 19.6777 71.0653 19.8933V20.7269H84.5123C84.7149 19.922 85.2649 17.4785 85.4531 16.4148L84.5702 16.228L84.5557 16.2136ZM91.2864 12.2896V5.85015C91.2864 5.23208 91.3588 4.9446 91.5469 4.78649C91.7351 4.62838 92.1259 4.52776 92.8497 4.52776C94.5722 4.52776 96.3236 5.5483 96.3236 8.39429C96.3236 9.77417 95.9328 10.8091 94.9919 11.5853C94.3406 12.1027 93.4431 12.2896 92.1983 12.2896H91.2864ZM102.36 20.1664C101.752 19.9651 101.23 19.6489 100.608 19.0021C100.058 18.384 99.4501 17.5935 98.5093 16.1417C97.6987 14.9775 96.6565 13.2095 96.2078 12.3758C98.0895 11.6284 99.5804 10.2916 99.5804 8.0062C99.5804 6.3676 98.8711 5.20333 97.8 4.49902C96.7578 3.76596 95.4117 3.53598 93.226 3.53598H86.0611V4.41278C88.073 4.57089 88.3046 4.77212 88.3046 6.92818V17.2485C88.3046 19.4621 88.0151 19.6633 85.9453 19.8789V20.7126H93.6168V19.8789C91.518 19.6777 91.2864 19.4621 91.2864 17.2485V13.267H91.9088C93.0089 13.267 93.4721 13.612 93.9497 14.3594C94.7314 15.7105 95.542 17.2198 96.3381 18.4128C97.496 20.1089 98.5672 20.7844 101.361 20.8851C101.679 20.9138 102.012 20.9425 102.229 20.9425L102.36 20.1664ZM116.284 15.8543C114.895 18.5565 113.331 19.9795 110.813 19.9795C106.919 19.9795 104.111 16.7023 104.111 11.8152C104.111 7.86247 106.355 4.22592 110.581 4.22592C113.071 4.22592 114.981 5.24645 115.763 8.25056L116.675 8.0637C116.516 6.48259 116.328 5.30395 116.067 3.82345C115.358 3.69409 113.404 3.11914 111.204 3.11914C104.893 3.11914 100.579 6.84193 100.579 12.3183C100.579 16.5298 103.561 21.0719 110.581 21.0719C112.463 21.0719 114.895 20.5545 115.604 20.3676C116.081 19.4908 116.776 17.4641 117.153 16.1848L116.284 15.8255V15.8543ZM135.955 3.53598H129.34V4.41278C131.193 4.51339 131.83 4.95898 131.989 5.92202C132.119 6.72694 132.221 7.7906 132.221 9.87479V12.2896C132.221 16.7023 130.889 19.4333 127.386 19.4333C124.274 19.4333 122.682 17.0616 122.682 12.9651V7.17253C122.682 4.729 122.971 4.57089 124.983 4.41278V3.53598H117.341V4.41278C119.411 4.59963 119.642 4.729 119.642 7.17253V13.4826C119.642 16.6017 120.395 18.5709 121.973 19.7495C123.203 20.7413 124.853 21.1007 126.547 21.1007C128.399 21.1007 130.238 20.4826 131.439 19.2033C132.988 17.5935 133.451 15.3512 133.451 12.3902V9.87479C133.451 7.7906 133.552 6.72694 133.654 5.97951C133.784 4.97335 134.435 4.49902 135.955 4.42715V3.55035V3.53598ZM149.127 16.113C148.635 17.4066 148.157 18.269 147.665 18.8152C147.057 19.4908 146.102 19.6489 144.785 19.6489C143.844 19.6489 143.033 19.6202 142.556 19.3902C142.035 19.1315 141.904 18.6571 141.904 17.3347V6.98567C141.904 4.70025 142.165 4.57089 144.235 4.41278V3.53598H136.52V4.41278C138.633 4.57089 138.879 4.729 138.879 6.98567V17.2485C138.879 19.5052 138.619 19.6633 136.288 19.8789V20.7126H149.026C149.257 19.9651 149.807 17.3635 149.996 16.343L149.127 16.113ZM163.761 16.2136C163.312 17.3635 162.791 18.2403 162.328 18.7865C161.706 19.4621 160.808 19.6489 159.158 19.6489C158.029 19.6489 157.059 19.6202 156.596 19.3614C156.075 19.074 155.945 18.4559 155.945 17.2054V12.4764H158.058C160.359 12.4764 160.649 12.6058 160.982 14.5031H161.865V9.28547H160.982C160.649 11.1109 160.374 11.2834 158.058 11.2834H155.945V5.4908C155.945 4.68588 156.017 4.59963 156.943 4.59963H158.594C160.273 4.59963 160.982 4.78649 161.416 5.30395C161.836 5.85015 162.154 6.58321 162.415 7.60374L163.298 7.47438C163.197 5.93639 163.095 4.11093 163.066 3.53598H150.661V4.3984C152.644 4.58526 152.891 4.68588 152.891 7.04317V17.2916C152.891 19.5052 152.659 19.6777 150.271 19.8933V20.7269H163.718C163.92 19.922 164.47 17.4785 164.658 16.4148L163.776 16.228L163.761 16.2136Z" fill="#FEFEFE"/>
<path d="M76.5512 34.7698C76.4354 34.7123 75.8998 34.8704 75.8419 34.9854C75.8564 35.6897 76.2617 37.8889 76.4933 38.2051C76.9999 38.4638 78.2302 38.8519 79.6198 38.8519C82.7463 38.8519 84.4543 37.1558 84.4543 35.0285C84.4543 33.5911 83.7885 32.7 82.2976 31.78C81.4291 31.2626 80.9225 30.9607 80.054 30.4145C79.229 29.854 78.8092 29.3078 78.8092 28.4741C78.8092 27.5398 79.4751 26.7924 80.5462 26.7924C81.1686 26.7924 81.6318 26.9073 82.0515 27.2523C82.5292 27.5973 82.8042 28.1722 82.9779 29.394C83.0793 29.4515 83.5859 29.4515 83.6872 29.3509C83.774 28.1004 83.8898 27.1661 84.0346 26.4043C83.0503 26.3036 82.2252 26.0449 80.662 26.0449C78.346 26.0449 76.363 27.3098 76.363 29.6671C76.363 31.7944 77.8105 32.7143 79.533 33.778C81.4147 34.9135 81.791 35.5172 81.791 36.4659C81.791 37.472 81.0383 38.0326 80.0975 38.0326C79.5185 38.0326 78.7803 37.8745 78.2592 37.4864C77.5065 36.9258 76.9854 36.1496 76.5512 34.7698ZM141.094 27.0367C141.47 27.0798 141.846 27.123 142.136 27.2236C142.512 27.3386 142.657 27.4967 142.7 28.0716C142.758 28.7903 142.758 30.357 142.758 31.8375C142.758 34.1373 142.758 35.5172 142.7 36.6671C142.7 37.3139 142.498 37.5295 142.136 37.6301C141.846 37.7164 141.354 37.7882 140.645 37.8889C140.602 37.9895 140.602 38.4063 140.645 38.5644C141.731 38.5644 143.207 38.5069 144.278 38.5069C146.42 38.5069 148.346 38.5932 150.039 38.5932C150.908 38.5932 151.009 38.4494 151.081 38.277C151.443 37.6014 151.906 35.7903 152.008 35.3303C151.921 35.2297 151.4 35.0429 151.255 35.0716C150.951 35.7759 150.575 36.4802 150.184 36.9115C149.735 37.4289 149.46 37.5151 148.548 37.5151C147.419 37.5151 146.435 37.4577 146.044 37.3714C145.798 37.3139 145.624 37.0264 145.624 36.7102V33.1887C145.624 33.1455 145.711 33.0018 145.769 33.0018C146.377 33.0018 147.926 33.0018 148.288 33.0449C148.693 33.1024 148.852 33.3324 148.968 33.6199L149.171 34.4392C149.272 34.4967 149.851 34.4823 149.952 34.4248C149.938 33.8642 149.909 32.9443 149.909 32.3981C149.909 31.7513 149.996 30.932 150.01 30.4577C149.909 30.3714 149.301 30.357 149.2 30.4145C149.142 30.6733 149.098 30.932 149.04 31.1332C148.924 31.6363 148.736 31.8088 148.317 31.8375C147.665 31.8807 146.276 31.8519 145.755 31.8519C145.697 31.8519 145.61 31.7657 145.61 31.6938C145.61 30.3283 145.595 29.0921 145.61 27.8129C145.61 27.7123 145.711 27.4679 145.812 27.4535C146.131 27.4104 148.085 27.4104 148.621 27.4679C148.896 27.4823 149.243 27.5829 149.446 27.9854C149.605 28.3016 149.706 28.7328 149.822 29.4659C149.923 29.5234 150.473 29.4802 150.589 29.4084C150.647 28.2872 150.734 27.008 150.879 26.3899C150.879 26.3468 150.835 26.3036 150.821 26.3036C150.111 26.4043 148.982 26.4186 148.201 26.4186H144.148C143.164 26.4186 141.89 26.3611 141.108 26.3611C141.021 26.4186 140.992 26.9361 141.065 27.0367H141.094ZM138.517 29.7821C138.561 29.8827 139.183 29.8396 139.27 29.7246C139.27 28.6609 139.473 27.008 139.588 26.3755C138.676 26.3324 137.07 26.0593 135.492 26.0593C133.813 26.0593 132.481 26.3611 131.396 26.9073C129.181 27.9854 128.095 30.0983 128.095 32.3406C128.095 36.6815 130.773 38.8663 135.289 38.8663C136.766 38.8663 137.649 38.5788 138.315 38.3919C138.879 38.0182 139.704 36.394 139.95 35.5891C139.849 35.4022 139.501 35.2154 139.342 35.1722C138.894 35.934 138.315 36.739 137.808 37.1702C137.2 37.7164 136.433 37.7882 135.854 37.7882C132.612 37.7882 131.396 34.8704 131.396 32.1394C131.396 28.5172 132.872 26.8786 135 26.8786C135.81 26.8786 136.607 26.9792 137.359 27.3961C138.17 27.8704 138.3 28.6322 138.503 29.7965L138.517 29.7821ZM121.958 27.0367C122.421 27.0942 122.682 27.1373 123.073 27.2379C123.42 27.3529 123.55 27.6404 123.579 28.0572C123.637 28.9197 123.637 29.8827 123.637 31.9956C123.637 33.6199 123.637 35.9197 123.594 36.624C123.536 37.4289 123.406 37.587 122.885 37.702C122.667 37.7451 122.378 37.8026 121.958 37.8601C121.857 37.9464 121.857 38.4638 121.958 38.5357C122.725 38.5357 123.333 38.4782 125.143 38.4782C126.576 38.4782 127.343 38.5213 128.168 38.5357C128.255 38.4782 128.327 37.9607 128.269 37.8601C127.864 37.7739 127.357 37.7164 127.126 37.6445C126.561 37.5008 126.547 37.0408 126.518 36.6815C126.474 35.9053 126.503 34.4392 126.503 32.01C126.503 30.2852 126.489 28.8622 126.518 28.2441C126.532 27.6692 126.561 27.3817 126.995 27.2236C127.256 27.1373 127.647 27.0798 128.038 27.0223C128.124 26.9217 128.095 26.4186 128.038 26.3468C127.618 26.3468 126.923 26.4043 124.969 26.4043C123.579 26.4043 122.696 26.3468 121.958 26.3468C121.871 26.433 121.871 26.9217 121.944 27.0223L121.958 27.0367ZM107.31 27.0511C107.715 27.1086 107.918 27.1517 108.178 27.2379C108.844 27.4248 109.119 27.8416 109.771 29.3365C110.378 30.7595 111.276 33.088 112.376 35.8478C112.796 36.8827 113.129 37.7882 113.404 38.6507C113.852 38.6075 114.75 38.6075 115.155 38.6507C115.343 38.047 115.633 37.1271 116.197 35.7616C117.225 33.2605 118.412 30.4145 119.063 28.934C119.469 28.0285 119.715 27.5973 120.236 27.3098C120.438 27.1948 120.815 27.1086 121.278 27.0367C121.365 26.893 121.321 26.4186 121.263 26.3611C120.8 26.3611 120.178 26.4186 118.861 26.4186C117.413 26.4186 116.704 26.3324 116.357 26.3324C116.27 26.3899 116.212 26.9073 116.27 27.0367C116.791 27.0942 117.239 27.1948 117.543 27.2811C118.093 27.4392 118.151 27.8416 117.92 28.5028C117.558 29.7821 115.937 33.9361 115.401 35.0716C115.358 35.1147 115.3 35.086 115.285 35.0716C114.822 34.008 112.825 29.0634 112.419 27.8991C112.333 27.6404 112.376 27.4535 112.506 27.3529C112.651 27.2523 113.027 27.1373 113.577 27.0367C113.635 26.9505 113.635 26.4186 113.534 26.3611C113.114 26.3611 111.754 26.4186 110.451 26.4186C109.38 26.4186 108.048 26.3611 107.382 26.3611C107.295 26.4043 107.237 26.9217 107.295 27.0655L107.31 27.0511ZM97.0907 27.0367C97.4671 27.0798 97.8724 27.1517 98.1184 27.2236C98.4803 27.3098 98.6685 27.5829 98.6829 28.1291C98.7264 29.0059 98.7264 30.2277 98.7264 32.1681C98.7264 33.4043 98.7119 36.1065 98.6685 36.739C98.654 37.357 98.5092 37.6158 98.0895 37.7164C97.8289 37.7739 97.525 37.8314 97.1631 37.8745C97.0618 37.9607 97.1052 38.4782 97.1776 38.5501C97.5973 38.5501 98.5092 38.4926 100.188 38.4926C101.781 38.4926 102.75 38.5501 103.199 38.5501C103.315 38.5069 103.344 37.8889 103.242 37.8745C102.721 37.7882 102.533 37.7739 102.171 37.6733C101.752 37.5583 101.621 37.3139 101.607 36.739C101.592 35.8765 101.563 34.6404 101.563 33.3899C101.563 33.3468 101.607 33.2749 101.65 33.2749H102.128C102.403 33.2893 102.577 33.4186 102.707 33.6342C103.358 34.6979 104.299 36.394 105.11 37.3858C105.225 37.5726 105.631 37.9895 106.123 38.2338C106.948 38.5932 109.003 38.6938 110.19 38.5932C110.277 38.5357 110.378 37.932 110.335 37.8745C109.307 37.7595 109.192 37.6876 108.482 37.0121C107.498 36.0634 105.66 33.3611 105.269 32.6281C105.254 32.585 105.269 32.4843 105.283 32.47C106.615 31.9525 107.643 31.0039 107.643 29.4515C107.643 27.6548 106.297 26.3899 103.807 26.3899C102.62 26.3899 101.505 26.4474 99.9712 26.4474C99.204 26.4474 97.6263 26.3899 97.1486 26.3899C97.0473 26.433 97.0039 26.9505 97.0907 27.0655V27.0367ZM102.273 27.2236C103.821 27.2236 104.748 28.3878 104.748 30.0408C104.748 31.3057 104.371 31.8232 103.836 32.0819C103.474 32.2831 102.519 32.355 101.665 32.3262C101.607 32.3262 101.549 32.24 101.549 32.1681C101.549 29.5234 101.549 28.0429 101.592 27.5973C101.592 27.511 101.65 27.3529 101.737 27.2954C101.882 27.2379 102.142 27.2092 102.287 27.2092L102.273 27.2236ZM85.8005 27.0367C86.1768 27.0798 86.5532 27.123 86.8427 27.2236C87.219 27.3386 87.3638 27.4967 87.4072 28.0716C87.4651 28.7903 87.4651 30.357 87.4651 31.8375C87.4651 34.1373 87.4651 35.5172 87.4072 36.6671C87.4072 37.3139 87.2045 37.5295 86.8427 37.6301C86.5532 37.7164 86.061 37.7882 85.3518 37.8889C85.3083 37.9895 85.3083 38.4063 85.3518 38.5644C86.4374 38.5644 87.9138 38.5069 88.9849 38.5069C91.1272 38.5069 93.0523 38.5932 94.7458 38.5932C95.6143 38.5932 95.7156 38.4494 95.788 38.277C96.1499 37.6014 96.6131 35.7903 96.7144 35.3303C96.6275 35.2297 96.1064 35.0429 95.9617 35.0716C95.6577 35.7759 95.2814 36.4802 94.8906 36.9115C94.4419 37.4289 94.1668 37.5151 93.2549 37.5151C92.1259 37.5151 91.1416 37.4577 90.7508 37.3714C90.5048 37.3139 90.3311 37.0264 90.3311 36.7102V33.1887C90.3311 33.1455 90.4179 33.0018 90.4758 33.0018C91.0837 33.0018 92.6325 33.0018 92.9944 33.0449C93.3997 33.1024 93.5589 33.3324 93.6747 33.6199L93.8773 34.4392C93.9787 34.4967 94.5577 34.4823 94.659 34.4248C94.6445 33.8642 94.6156 32.9443 94.6156 32.3981C94.6156 31.7513 94.7024 30.932 94.7169 30.4577C94.6156 30.3714 94.0076 30.357 93.9063 30.4145C93.8484 30.6733 93.805 30.932 93.7471 31.1332C93.6313 31.6363 93.4431 31.8088 93.0233 31.8375C92.372 31.8807 90.9824 31.8519 90.4613 31.8519C90.4034 31.8519 90.3166 31.7657 90.3166 31.6938C90.3166 30.3283 90.3021 29.0921 90.3166 27.8129C90.3166 27.7123 90.4179 27.4679 90.5192 27.4535C90.8377 27.4104 92.7917 27.4104 93.3273 27.4679C93.6023 27.4823 93.9497 27.5829 94.1524 27.9854C94.3116 28.3016 94.4129 28.7328 94.5287 29.4659C94.63 29.5234 95.1801 29.4802 95.2959 29.4084C95.3538 28.2872 95.4406 27.008 95.5854 26.3899C95.5854 26.3468 95.5419 26.3036 95.5275 26.3036C94.8182 26.4043 93.6892 26.4186 92.9075 26.4186H88.8546C87.8704 26.4186 86.5966 26.3611 85.815 26.3611C85.7281 26.4186 85.6992 26.9361 85.7715 27.0367H85.8005Z" fill="#FEFEFE"/>
<path fill-rule="evenodd" clip-rule="evenodd" d="M50.8442 32.4414H73.4247V34.0944H50.8442V32.4414ZM176.991 32.4414V34.0944H152.341V32.4414H176.991Z" fill="url(#paint1_linear_101_4922)"/>
</g>
<defs>
<linearGradient id="paint0_linear_101_4922" x1="12.7531" y1="41.854" x2="29.2928" y2="0.0627094" gradientUnits="userSpaceOnUse">
<stop stop-color="#FEFEFE"/>
<stop offset="0.270588" stop-color="#898E91"/>
<stop offset="0.458824" stop-color="#FEFEFE"/>
<stop offset="0.580392" stop-color="#65696D"/>
<stop offset="0.690196" stop-color="#FEFEFE"/>
<stop offset="0.8" stop-color="#898E91"/>
<stop offset="0.890196" stop-color="#FEFEFE"/>
<stop offset="1" stop-color="#282829"/>
</linearGradient>
<linearGradient id="paint1_linear_101_4922" x1="59.3909" y1="55.1305" x2="168.221" y2="10.8773" gradientUnits="userSpaceOnUse">
<stop stop-color="#FEFEFE"/>
<stop offset="0.270588" stop-color="#898E91"/>
<stop offset="0.380392" stop-color="#FEFEFE"/>
<stop offset="0.470588" stop-color="#65696D"/>
<stop offset="0.580392" stop-color="#FEFEFE"/>
<stop offset="0.729412" stop-color="#898E91"/>
<stop offset="0.788235" stop-color="#FEFEFE"/>
<stop offset="1" stop-color="#282829"/>
</linearGradient>
<clipPath id="clip0_101_4922">
<rect width="177" height="42" fill="white"/>
</clipPath>
</defs>
</svg>
