<svg width="136" height="173" viewBox="0 0 136 173" fill="none" xmlns="http://www.w3.org/2000/svg">
<path d="M64.9992 122C65.3218 116.838 65.5059 109.946 65.3898 102M50.4992 17C49.4992 15.8333 47.6992 12.1 48.4992 6.5C53.2992 8.9 51.8325 14.5 50.4992 17ZM50.4992 17C53.0728 22.7038 55.2302 28.9539 57.0312 35.5M65.3898 102C65.2 89.0046 64.2077 73.188 61.7062 57.5M65.3898 102C56.5148 92.9527 58.817 77.6704 40.4991 68.3572M28.4992 64C26.1658 62.1667 18.1991 56.6 20.9991 49C26.4991 55 28.4991 59.5 28.4992 64ZM28.4992 64C33.2813 65.2145 37.2205 66.6902 40.4991 68.3572M57.0312 35.5C56.1872 32 55.6992 23.4 60.4992 17C60.0992 25.8 58.0205 33 57.0312 35.5ZM57.0312 35.5C58.9823 42.592 60.5153 50.0314 61.7062 57.5M61.7062 57.5C56.9705 58.1667 52.8992 54.7 48.4992 43.5C58.8992 46.7 59.4705 54.8333 61.7062 57.5ZM40.4991 68.3572C38.4991 66.7381 38.2991 60.3 39.4991 53.5C44.6991 56.7 41.1658 65.2381 40.4991 68.3572Z" stroke="#BABEBF"/>
<path d="M27.5 64.0945C21.1667 67.9278 8.4 68.8946 0 66.0946C15.5 58.5945 20 63.5945 27.5 64.0945Z" stroke="#BABEBF"/>
<path d="M85.25 147.5L74 172.5H53.5L43.5 147.5M85.25 147.5H43.5M85.25 147.5L90.875 135M43.5 147.5L38.5 135M90.875 135L96.5 122.5H33.5L38.5 135M90.875 135H38.5" stroke="#BABEBF"/>
<path d="M79.0185 59.5274C77.5316 58.5546 74.1139 54.2116 72.3386 44.6228C77.1306 50.2276 77.7926 55.5993 79.0185 59.5274Z" stroke="#BABEBF"/>
<path d="M72.2144 122.401L81.7592 45.569M81.7592 45.569C78.1325 39.5425 76.2479 27.909 82.3984 12.3713C88.5968 27.198 84.7752 36.7711 81.7592 45.569Z" stroke="#BABEBF"/>
<path d="M83.0644 43.7184C86.0894 37.1873 94.7528 23.1002 105.206 19C96.2493 40.6512 90.8117 38.3325 83.0644 43.7184Z" stroke="#BABEBF"/>
<path d="M79.3431 70.1839C79.8399 67.1274 83.0644 60.4151 91.9874 58.0173C89.8486 62.9402 82.6667 68.1796 79.3431 70.1839Z" stroke="#BABEBF"/>
<path d="M55.5 122.5C54 116.5 49.5 102.5 43.5 94.5M43.5 94.5C38.8333 95.6667 29 95.9 27 87.5C34.6 88.7 41.1667 92.6667 43.5 94.5Z" stroke="#BABEBF"/>
<path d="M49.5002 105C47.8335 101.833 45.4002 93.8 49.0002 87C52.6002 94.6 50.8336 102.167 49.5002 105Z" stroke="#BABEBF"/>
<path d="M126.98 88.6448L127.051 88.9494L127.355 89.0197L133.775 90.5L127.355 91.9803L127.051 92.0506L126.98 92.3552L125.5 98.7748L124.02 92.3552L123.949 92.0506L123.645 91.9803L117.225 90.5L123.645 89.0197L123.949 88.9494L124.02 88.6448L125.5 82.2252L126.98 88.6448Z" stroke="#BABEBF"/>
<path d="M14.8245 5.80066L14.8947 6.10529L15.1993 6.17553L18.7748 7L15.1993 7.82447L14.8947 7.89471L14.8245 8.19934L14 11.7748L13.1755 8.19934L13.1053 7.89471L12.8007 7.82447L9.22523 7L12.8007 6.17553L13.1053 6.10529L13.1755 5.80066L14 2.22523L14.8245 5.80066Z" stroke="#BABEBF"/>
</svg>
